<?xml version="1.0" standalone="no"?>
<!DOCTYPE svg PUBLIC "-//W3C//DTD SVG 20010904//EN"
 "http://www.w3.org/TR/2001/REC-SVG-20010904/DTD/svg10.dtd">
<svg version="1.0" xmlns="http://www.w3.org/2000/svg"
 width="1600.000000pt" height="1600.000000pt" viewBox="0 0 1600.000000 1600.000000"
 preserveAspectRatio="xMidYMid meet">
<metadata>
Created by potrace 1.11, written by Peter Selinger 2001-2013
</metadata>
<g transform="translate(0.000000,1600.000000) scale(0.100000,-0.100000)"
fill="#000000" stroke="none">
<path d="M2241 13810 c-17 -17 -36 -50 -42 -73 -11 -40 -7 -173 6 -242 87
-438 395 -1242 643 -1680 98 -173 376 -581 432 -635 3 -3 29 -36 59 -74 261
-335 499 -572 876 -871 28 -22 52 -42 55 -45 3 -3 23 -19 45 -35 22 -17 42
-32 45 -35 3 -3 25 -22 50 -41 58 -45 290 -230 310 -246 8 -7 134 -107 280
-223 494 -394 693 -561 954 -804 192 -178 460 -453 559 -570 27 -33 56 -66 64
-74 59 -59 197 -299 260 -452 46 -109 126 -363 137 -430 2 -14 7 -32 10 -40 6
-17 10 -38 32 -165 9 -49 18 -108 20 -130 2 -22 6 -58 10 -80 3 -22 7 -130 8
-240 2 -178 -6 -308 -29 -450 -21 -132 -80 -324 -101 -332 -19 -7 -163 21
-334 64 -74 19 -153 39 -175 43 -153 33 -710 215 -1100 360 -290 108 -490 179
-540 191 -22 5 -47 12 -55 14 -26 8 -183 44 -215 49 -16 2 -52 8 -80 12 -27 3
-58 8 -68 10 -120 21 -631 22 -742 0 -11 -2 -45 -7 -75 -11 -30 -4 -129 -22
-220 -42 -91 -19 -176 -36 -190 -39 -14 -3 -133 -32 -265 -65 -132 -33 -250
-63 -263 -65 -13 -3 -81 -18 -150 -35 -70 -16 -143 -32 -162 -35 -19 -3 -62
-9 -95 -15 -33 -5 -134 -8 -225 -6 -157 3 -170 5 -257 35 -50 18 -123 48 -161
66 -459 228 -558 231 -337 11 141 -140 243 -202 439 -266 50 -17 109 -33 131
-37 53 -9 612 -8 695 1 74 8 80 9 249 43 145 29 135 27 224 48 37 9 97 23 135
32 37 9 76 18 87 20 11 2 43 8 70 14 28 5 63 12 79 14 16 3 52 10 80 15 28 6
89 13 136 16 115 8 518 8 611 0 318 -27 824 -166 1204 -330 17 -8 55 -23 85
-35 30 -12 77 -32 105 -44 213 -98 705 -314 788 -347 56 -22 111 -44 122 -49
11 -5 58 -21 105 -36 120 -39 121 -40 70 -110 -68 -93 -130 -164 -145 -164 -7
0 -113 34 -236 75 -123 42 -231 78 -239 80 -8 2 -73 21 -145 43 -120 37 -258
76 -312 88 -12 2 -35 9 -50 15 -16 6 -30 10 -33 10 -3 0 -14 2 -25 4 -11 3
-31 7 -45 9 -14 2 -68 14 -120 25 -52 12 -117 24 -145 27 -27 3 -56 7 -64 10
-8 3 -139 7 -290 10 l-276 6 -125 45 c-69 25 -138 52 -155 59 -30 13 -150 57
-323 120 -201 72 -461 138 -627 158 -27 3 -61 8 -75 11 -41 8 -188 15 -300 15
-197 -1 -351 -15 -555 -50 -60 -10 -125 -22 -144 -25 -19 -3 -37 -7 -40 -9 -3
-2 -22 -7 -41 -10 -19 -3 -154 -35 -300 -71 -603 -150 -733 -175 -917 -175
-163 -1 -262 22 -433 102 -331 154 -420 188 -453 175 -28 -11 -2 -58 76 -138
176 -179 321 -262 552 -313 185 -42 555 -42 795 0 47 8 101 17 120 20 35 5 85
15 260 54 52 12 106 24 120 26 14 3 54 12 90 20 76 18 81 19 140 30 25 4 47 8
50 9 3 1 28 5 55 10 28 4 59 9 70 11 141 26 669 26 815 -1 14 -2 57 -9 95 -16
39 -6 83 -13 99 -16 52 -9 334 -82 418 -109 153 -49 233 -76 241 -84 4 -4 -32
-18 -80 -33 -48 -14 -140 -41 -203 -60 -138 -43 -396 -102 -485 -112 -237 -26
-524 -24 -625 5 -17 5 -34 9 -38 10 -67 9 -186 66 -367 176 -164 100 -180 108
-200 100 -30 -11 -1 -66 103 -199 137 -174 313 -266 567 -296 76 -9 501 -7
555 3 14 2 52 7 85 11 123 13 142 16 230 31 50 8 101 17 115 20 14 2 41 7 60
10 19 3 67 12 105 20 377 80 603 126 620 126 11 0 103 -36 205 -82 174 -77
208 -92 335 -150 108 -49 397 -160 530 -204 156 -50 407 -114 515 -130 19 -3
46 -8 60 -10 43 -8 110 -17 215 -30 117 -14 147 -20 205 -39 52 -17 86 -21
170 -19 l105 2 165 -61 c91 -34 174 -65 185 -70 19 -8 163 -51 235 -70 29 -8
105 -25 245 -55 18 -3 63 -12 105 -19 9 -2 43 -6 75 -10 33 -4 68 -9 77 -11 9
-1 48 -6 85 -9 37 -4 78 -8 90 -10 33 -5 284 -18 390 -19 51 -1 95 -4 98 -7 3
-3 -1 -6 -7 -7 -7 0 -22 -3 -33 -6 -172 -44 -521 -116 -640 -131 -27 -3 -63
-8 -80 -10 -202 -29 -368 -40 -625 -40 -468 0 -519 12 -1295 315 -187 73 -351
136 -365 140 -14 5 -70 25 -125 45 -138 51 -526 182 -605 205 -245 70 -298 84
-475 126 -25 6 -209 40 -290 54 -93 15 -179 22 -300 22 -246 0 -416 -38 -987
-217 -365 -116 -634 -162 -909 -159 -286 3 -399 37 -674 200 -171 101 -235
130 -235 105 0 -19 40 -92 80 -146 101 -136 221 -231 359 -284 151 -58 251
-70 541 -66 129 2 242 6 250 8 8 3 44 8 80 12 36 3 79 8 95 10 17 2 48 6 70 9
22 3 47 7 55 10 8 3 33 7 55 10 60 7 188 31 353 67 81 17 156 33 167 35 11 2
83 17 160 34 161 36 224 43 350 43 93 0 243 -9 305 -18 96 -15 215 -39 305
-61 55 -14 107 -27 116 -29 107 -24 559 -180 789 -273 105 -42 130 -54 130
-63 0 -4 -30 -14 -68 -23 -82 -19 -293 -64 -330 -70 -15 -3 -47 -8 -72 -11
-25 -4 -54 -9 -65 -11 -11 -2 -40 -7 -65 -10 -25 -3 -54 -8 -65 -10 -32 -6
-227 -5 -260 1 -92 19 -164 36 -195 48 -44 16 -156 74 -189 97 -28 19 -211
137 -246 157 -11 7 -51 28 -90 48 -114 58 -146 43 -104 -48 46 -100 182 -256
282 -324 23 -15 44 -30 47 -33 28 -28 306 -162 413 -199 134 -47 284 -74 412
-74 118 0 204 14 391 63 66 17 126 33 134 35 8 2 44 11 80 20 75 20 81 21 180
40 114 22 155 26 287 30 144 3 188 -4 308 -49 159 -60 404 -130 535 -152 96
-17 232 -49 275 -66 70 -27 404 -200 560 -290 72 -41 150 -86 175 -100 25 -14
88 -50 140 -80 132 -77 232 -128 320 -165 160 -68 430 -157 444 -147 4 2 1 -3
-6 -11 -11 -12 -156 -68 -208 -80 -8 -2 -31 -9 -50 -15 -106 -33 -239 -49
-410 -48 -265 1 -438 29 -705 115 -107 35 -269 94 -310 113 -11 5 -65 28 -120
51 -81 34 -526 230 -700 309 -22 10 -65 29 -95 43 -95 43 -401 163 -485 191
-86 28 -259 70 -340 83 -97 15 -507 7 -620 -12 -135 -24 -149 -27 -290 -55
-55 -11 -109 -22 -120 -24 -11 -2 -85 -18 -165 -35 -292 -62 -289 -62 -490
-63 -276 -1 -332 18 -635 212 -71 46 -168 103 -214 127 -125 64 -160 56 -126
-30 24 -61 93 -153 175 -235 233 -233 705 -417 1034 -405 63 3 246 38 356 68
80 23 300 76 351 85 182 34 242 39 399 34 154 -4 183 -7 250 -18 19 -4 62 -11
95 -17 124 -21 387 -99 490 -144 17 -7 66 -27 109 -45 44 -18 87 -36 95 -40 9
-5 97 -49 196 -98 99 -49 196 -98 215 -109 19 -11 112 -64 205 -118 94 -53
199 -113 235 -133 36 -20 85 -47 110 -62 88 -51 271 -135 403 -184 167 -62
356 -106 532 -123 174 -17 430 -3 575 31 14 3 36 8 50 10 91 17 285 80 387
127 23 10 45 19 49 19 13 0 341 164 494 248 85 46 180 98 210 114 30 17 78 43
105 58 28 15 100 54 160 87 249 137 498 238 660 269 22 4 47 9 55 10 87 19
315 24 435 10 38 -4 72 -9 75 -11 3 -2 23 -6 45 -9 69 -11 274 -65 425 -113
80 -25 161 -49 180 -55 19 -5 113 -34 208 -64 427 -134 567 -159 882 -158 397
1 563 41 920 219 211 105 341 193 475 320 101 97 122 111 200 135 237 73 578
236 735 353 188 140 362 352 459 562 60 127 70 174 45 200 -31 31 -103 -24
-428 -329 -183 -172 -337 -274 -564 -374 -95 -42 -104 -42 -101 5 3 66 1 73
-26 73 -32 0 -79 -30 -186 -118 l-86 -71 -179 4 c-441 10 -561 38 -1230 288
-198 74 -372 138 -389 142 -16 4 -37 8 -45 10 -8 2 -37 8 -64 14 -77 18 -153
25 -281 25 -204 1 -361 -20 -592 -79 -249 -64 -408 -122 -848 -307 -143 -61
-296 -125 -340 -143 -44 -18 -145 -61 -225 -95 -80 -34 -149 -62 -155 -63 -5
-2 -15 -6 -21 -9 -20 -13 -278 -108 -334 -123 -209 -58 -319 -73 -502 -70
-130 2 -150 4 -293 26 -191 29 -586 153 -806 253 l-54 25 35 1 c19 1 42 3 50
4 8 2 53 6 100 10 153 13 441 66 655 121 257 66 383 115 743 286 56 27 104 49
106 49 2 0 48 21 103 46 418 196 831 337 1088 370 22 3 51 7 65 10 132 22 455
22 615 -1 16 -2 52 -7 80 -10 149 -20 475 -95 840 -195 121 -33 362 -89 410
-96 190 -26 656 -25 775 1 14 3 39 8 55 11 277 50 669 206 968 386 120 71 169
106 297 208 121 97 139 107 290 165 186 72 446 208 615 322 151 102 178 124
270 212 94 90 155 172 189 253 21 50 13 67 -27 61 -45 -7 -94 -34 -242 -133
-226 -151 -487 -294 -745 -408 -125 -55 -294 -116 -350 -127 -12 -2 -37 -9
-54 -14 -17 -6 -83 -20 -146 -32 -128 -23 -486 -35 -595 -19 -33 4 -80 11
-105 14 -69 8 -274 52 -380 82 -52 15 -107 29 -123 31 -41 8 -41 20 0 33 93
30 354 136 413 168 154 83 339 204 541 353 120 89 164 113 304 164 134 50 300
131 410 200 233 147 497 346 603 455 125 129 282 338 282 377 0 18 -40 16 -80
-5 -56 -29 -85 -49 -292 -204 -206 -154 -408 -294 -518 -358 -76 -44 -204
-110 -214 -110 -4 0 -5 13 -1 29 4 17 2 32 -5 36 -16 10 -92 -28 -190 -94
-104 -71 -150 -95 -215 -115 -49 -14 -250 -60 -310 -70 -158 -26 -214 -34
-329 -43 -177 -13 -624 -6 -678 11 -7 3 -32 7 -56 10 -103 13 -216 51 -442
149 -161 69 -373 151 -420 162 -8 1 -58 15 -111 29 -52 14 -109 28 -125 30
-16 3 -39 8 -51 10 -11 3 -43 8 -70 12 -26 5 -50 9 -53 9 -17 4 -124 17 -175
20 -71 6 -636 6 -682 1 -31 -3 -32 -2 -62 78 -92 244 -162 468 -196 621 -42
191 -48 245 -49 400 -1 179 10 232 84 416 39 98 157 332 191 381 11 14 19 29
19 32 0 9 146 222 204 296 166 215 399 424 759 682 406 292 527 390 717 578
375 371 708 834 870 1210 18 41 40 93 50 115 35 79 80 245 96 355 14 95 13
116 -17 270 -38 199 -141 335 -429 566 -47 38 -87 71 -90 75 -3 3 -41 32 -85
65 -114 86 -173 117 -213 116 -36 -2 -72 -25 -72 -48 0 -24 -18 -24 -65 3 -66
37 -142 37 -216 0 -44 -21 -231 -154 -249 -176 -3 -4 -36 -33 -75 -65 -62 -52
-146 -128 -295 -266 -78 -73 -174 -147 -215 -168 -22 -11 -74 -31 -115 -43
-72 -23 -88 -24 -380 -24 -269 0 -414 5 -635 21 -167 12 -387 18 -635 18 -284
1 -413 -5 -560 -24 -47 -6 -102 -13 -123 -16 -30 -3 -173 -30 -267 -49 -80
-16 -307 -85 -365 -110 -119 -52 -195 -90 -240 -118 -198 -123 -374 -299 -439
-439 -14 -31 -26 -62 -26 -67 0 -17 -14 -13 -54 14 -20 14 -39 25 -41 25 -2 0
-69 42 -147 93 -193 127 -354 229 -408 259 -93 53 -185 99 -254 130 -39 17
-109 49 -156 70 -206 96 -657 265 -1020 383 -80 26 -154 51 -165 56 -11 4 -83
30 -160 58 -371 131 -665 257 -1071 458 -178 89 -433 220 -529 273 -27 15 -95
51 -150 80 -189 100 -370 203 -508 289 -125 78 -185 120 -372 263 -39 29 -75
48 -102 53 -47 8 -58 17 -67 61 -8 36 -38 68 -81 84 -58 23 -72 21 -104 -10z
m9215 -7653 c11 -3 47 -8 80 -11 157 -17 313 -63 631 -185 224 -85 451 -152
613 -180 36 -6 79 -13 95 -16 109 -18 618 -27 780 -13 l79 7 -51 -28 c-182
-100 -482 -199 -793 -263 -173 -36 -255 -38 -385 -14 -140 26 -347 33 -595 20
-196 -11 -271 -8 -331 11 -62 20 -233 94 -398 171 -62 30 -116 54 -120 54 -5
1 -25 41 -97 205 -14 33 -32 74 -40 90 -23 51 -55 137 -52 140 23 17 517 27
584 12z m-1077 -249 c8 -20 13 -40 12 -44 -1 -5 -20 -7 -44 -5 -23 2 -60 5
-82 6 -22 2 -121 4 -220 5 -165 2 -178 3 -152 16 35 19 282 102 367 124 l65
16 20 -41 c11 -22 26 -57 34 -77z m-9 -382 c101 -7 175 -24 193 -44 20 -22
127 -237 127 -254 0 -7 -24 -21 -52 -31 -29 -10 -177 -63 -328 -117 -328 -117
-427 -151 -540 -186 -83 -25 -107 -32 -261 -73 -63 -17 -229 -55 -288 -66 -9
-1 -36 -6 -61 -11 -25 -4 -47 -8 -50 -9 -10 -2 -105 -16 -140 -21 -19 -3 -46
-7 -60 -9 -14 -3 -52 -7 -85 -11 -33 -3 -73 -7 -90 -10 -190 -25 -646 -25
-879 1 -85 9 -267 48 -259 55 4 4 51 22 103 40 107 37 248 96 393 164 216 102
289 136 292 136 2 0 52 23 112 51 188 88 541 222 698 264 216 58 361 90 495
110 25 4 59 9 75 12 97 17 419 22 605 9z m1490 -401 c14 -3 140 -8 280 -10
382 -8 429 -11 595 -51 61 -14 117 -27 125 -29 8 -2 40 -10 71 -19 31 -9 65
-18 76 -20 11 -3 51 -13 89 -25 63 -18 338 -89 374 -96 8 -1 35 -6 60 -11 25
-4 47 -8 50 -9 3 0 27 -4 53 -9 27 -4 58 -9 70 -12 47 -9 169 -17 302 -19 77
-2 147 -4 155 -4 19 -2 -109 -68 -275 -141 -246 -110 -493 -179 -704 -199 -87
-9 -448 -6 -487 2 -12 3 -45 8 -75 12 -105 13 -352 69 -419 95 -14 6 -34 12
-45 14 -18 4 -139 46 -385 135 -175 63 -364 103 -570 120 -92 8 -335 6 -440
-4 -73 -6 -67 0 41 44 66 26 105 29 139 11 14 -7 52 -14 86 -14 75 -1 121 27
159 96 31 57 43 64 160 95 176 47 274 61 385 57 58 -2 116 -6 130 -9z m-30
-1340 c171 -20 367 -72 785 -205 193 -62 471 -140 585 -165 152 -32 163 -34
245 -41 101 -7 140 -16 124 -27 -78 -55 -179 -105 -300 -150 -213 -80 -354
-104 -599 -101 -363 4 -652 76 -1261 317 -249 98 -310 118 -434 141 -155 29
-148 24 -70 57 39 16 84 36 100 44 143 66 386 128 540 138 63 4 225 -1 285 -8z"/>
</g>
</svg>
